<svg width="13" height="14" viewBox="0 0 13 14" fill="none" xmlns="http://www.w3.org/2000/svg">
<path id="Vector" fill-rule="evenodd" clip-rule="evenodd" d="M0 9C0 9.82844 0.67157 10.5 1.5 10.5H3V9.50004H1.5C1.22386 9.50004 1 9.27614 1 9V2C1 1.72386 1.22386 1.5 1.5 1.5H8.5C8.77614 1.5 9 1.72386 9 2V3.49996H4.5C3.67158 3.49996 3 4.17153 3 4.99996V11.9999C3 12.8283 3.67158 13.4999 4.5 13.4999H11.5C12.3284 13.4999 13 12.8283 13 11.9999V4.99996C13 4.17153 12.3284 3.49996 11.5 3.49996H10V2C10 1.17157 9.3284 0.5 8.5 0.5H1.5C0.67157 0.5 0 1.17157 0 2V9ZM4 4.99996C4 4.72382 4.22386 4.49996 4.5 4.49996H11.5C11.7761 4.49996 12 4.72382 12 4.99996V11.9999C12 12.2761 11.7761 12.4999 11.5 12.4999H4.5C4.22386 12.4999 4 12.2761 4 11.9999V4.99996Z" fill="#A6A6A6"/>
</svg>
