<svg width="30" height="30" viewBox="0 0 30 30" fill="none" xmlns="http://www.w3.org/2000/svg">
<g id="Chats" clip-path="url(#clip0_135_80)">
<path id="Vector" d="M8.38828 16.875L3.75 20.625V5.625C3.75 5.37636 3.84877 5.1379 4.02459 4.96209C4.2004 4.78627 4.43886 4.6875 4.6875 4.6875H19.6875C19.9361 4.6875 20.1746 4.78627 20.3504 4.96209C20.5262 5.1379 20.625 5.37636 20.625 5.625V15.9375C20.625 16.1861 20.5262 16.4246 20.3504 16.6004C20.1746 16.7762 19.9361 16.875 19.6875 16.875H8.38828Z" stroke="#797979" stroke-width="2" stroke-linecap="round" stroke-linejoin="round"/>
<path id="Vector_2" d="M9.375 16.875V21.5625C9.375 21.8111 9.47377 22.0496 9.64959 22.2254C9.8254 22.4012 10.0639 22.5 10.3125 22.5H21.6117L26.25 26.25V11.25C26.25 11.0014 26.1512 10.7629 25.9754 10.5871C25.7996 10.4113 25.5611 10.3125 25.3125 10.3125H20.625" stroke="#797979" stroke-width="2" stroke-linecap="round" stroke-linejoin="round"/>
</g>
<defs>
<clipPath id="clip0_135_80">
<rect width="30" height="30" fill="white"/>
</clipPath>
</defs>
</svg>
