<svg width="13" height="13" viewBox="0 0 13 13" fill="none" xmlns="http://www.w3.org/2000/svg">
<path id="Vector" fill-rule="evenodd" clip-rule="evenodd" d="M3.54098 1.35254C2.13947 1.35254 1 2.49365 1 3.90538C1 5.3817 1.85706 6.91686 3.02007 8.33528C4.04148 9.58106 5.24216 10.6703 6.14754 11.4779C7.05292 10.6703 8.2536 9.58106 9.27502 8.33528C10.438 6.91686 11.2951 5.3817 11.2951 3.90538C11.2951 2.49365 10.1556 1.35254 8.75412 1.35254C7.91811 1.35254 7.46646 1.64329 7.18722 1.95849C6.92629 2.25301 6.79375 2.58572 6.67253 2.88999C6.65143 2.94296 6.63067 2.99507 6.60963 3.04597C6.53234 3.233 6.34992 3.355 6.14754 3.355C5.94517 3.355 5.76275 3.23301 5.68545 3.04598C5.66441 2.99507 5.64364 2.94295 5.62254 2.88996C5.50132 2.5857 5.36878 2.253 5.10786 1.95849C4.82861 1.64329 4.37697 1.35254 3.54098 1.35254ZM0 3.90538C0 1.94504 1.58352 0.352539 3.54098 0.352539C4.65592 0.352539 5.38256 0.760549 5.85636 1.29536C5.96814 1.42153 6.06438 1.55388 6.14754 1.68551C6.2307 1.55388 6.32693 1.42153 6.43871 1.29536C6.91252 0.760549 7.63916 0.352539 8.75412 0.352539C10.7115 0.352539 12.2951 1.94504 12.2951 3.90538C12.2951 5.74047 11.2488 7.50514 10.0483 8.96933C8.91112 10.3563 7.56946 11.5509 6.65353 12.3665C6.59397 12.4195 6.53621 12.471 6.48043 12.5207C6.29076 12.69 6.00432 12.69 5.81465 12.5207C5.75887 12.471 5.70111 12.4195 5.64155 12.3665C4.72562 11.5509 3.38393 10.3563 2.24678 8.96933C1.04624 7.50514 0 5.74047 0 3.90538Z" fill="black"/>
</svg>
