<svg width="30" height="30" viewBox="0 0 30 30" fill="none" xmlns="http://www.w3.org/2000/svg">
<g id="Frame 65">
<rect width="30" height="30" rx="5" fill="#A6A6A6"/>
<path id="Vector" fill-rule="evenodd" clip-rule="evenodd" d="M22.7072 3.2929C22.3166 2.90237 21.6834 2.90237 21.293 3.2929L6.42911 18.1567C6.24919 18.3366 6.10527 18.5492 6.00503 18.7831L3.08089 25.606C2.91981 25.982 3.00379 26.418 3.29293 26.7072C3.58207 26.9962 4.01811 27.0802 4.39395 26.9192L11.2169 23.995C11.4508 23.8948 11.6634 23.7508 11.8433 23.571L26.7072 8.70709C27.0976 8.31657 27.0976 7.68341 26.7072 7.29289L22.7072 3.2929ZM7.84332 19.5709L22 5.41422L24.5858 7.99999L10.4291 22.1568L7.43849 23.4384L6.56163 22.5616L7.84332 19.5709Z" fill="white"/>
</g>
</svg>
