<svg width="31" height="31" viewBox="0 0 31 31" fill="none" xmlns="http://www.w3.org/2000/svg">
<path id="Vector" fill-rule="evenodd" clip-rule="evenodd" d="M14.5291 0C13.6307 0 12.852 0.621943 12.6534 1.49812L12.1146 3.8744C11.257 4.12381 10.4389 4.46535 9.67187 4.88736L7.61046 3.58789C6.85046 3.10882 5.86004 3.21967 5.22477 3.85492L3.85332 5.22639C3.21807 5.86165 3.10719 6.85206 3.58629 7.61206L4.88623 9.67423C4.46457 10.4411 4.12334 11.2589 3.87418 12.1162L1.49811 12.6549C0.621945 12.8535 0 13.6323 0 14.5306V16.4702C0 17.3686 0.621945 18.1473 1.49811 18.3459L3.87445 18.8847C4.12377 19.7422 4.4652 20.5603 4.88707 21.3273L3.58735 23.3891C3.10826 24.149 3.21913 25.1394 3.85438 25.7748L5.22585 27.1463C5.86111 27.7814 6.85152 27.8923 7.61152 27.4133L9.67346 26.1135C10.44 26.5351 11.2576 26.8763 12.1146 27.1254L12.6534 29.5018C12.852 30.378 13.6307 31 14.5291 31H16.4686C17.367 31 18.1458 30.378 18.3444 29.5018L18.8829 27.1263C19.7407 26.8772 20.5589 26.5358 21.3262 26.114L23.388 27.4137C24.1479 27.8927 25.1383 27.7819 25.7737 27.1467L27.1451 25.7752C27.7803 25.1399 27.8912 24.1494 27.4121 23.3896L26.1129 21.3284C26.5351 20.5611 26.8768 19.7426 27.1261 18.8845L29.5018 18.3459C30.378 18.1473 31 17.3686 31 16.4702V14.5306C31 13.6323 30.378 12.8535 29.5018 12.6549L27.1264 12.1164C26.8772 11.2586 26.5358 10.4402 26.1138 9.673L27.413 7.61161C27.8923 6.85161 27.7814 5.86119 27.146 5.22592L25.7746 3.85447C25.1394 3.21922 24.149 3.10834 23.3889 3.58744L21.3278 4.88682C20.56 4.46456 19.7413 4.1229 18.8829 3.87354L18.3444 1.49812C18.1458 0.621943 17.367 0 16.4686 0H14.5291ZM9.66321 7.15553C10.855 6.32029 12.234 5.73389 13.7247 5.47175L14.5291 1.92337H16.4686L17.273 5.47123C18.7644 5.73305 20.1441 6.31945 21.3366 7.15491L24.4146 5.21449L25.7861 6.58594L23.8456 9.66418C24.6807 10.8562 25.267 12.2354 25.5288 13.7263L29.0766 14.5306V16.4702L25.5286 17.2745C25.2666 18.7656 24.6801 20.145 23.8446 21.337L25.785 24.4153L24.4135 25.7866L21.335 23.846C20.143 24.681 18.7638 25.267 17.273 25.5288L16.4686 29.0766H14.5291L13.7247 25.5281C12.2346 25.2661 10.8561 24.6801 9.66463 23.8453L6.58587 25.7861L5.2144 24.4146L7.15514 21.3361C6.32011 20.1442 5.73389 18.7653 5.47191 17.2747L1.92335 16.4702V14.5306L5.47175 13.7262C5.73355 12.2358 6.3195 10.857 7.15419 9.66527L5.21334 6.58641L6.58481 5.21497L9.66321 7.15553ZM18.9506 15.4997C18.9506 17.4054 17.4058 18.9502 15.5001 18.9502C13.5944 18.9502 12.0495 17.4054 12.0495 15.4997C12.0495 13.594 13.5944 12.0491 15.5001 12.0491C17.4058 12.0491 18.9506 13.594 18.9506 15.4997ZM20.9871 15.4997C20.9871 18.5301 18.5305 20.9867 15.5001 20.9867C12.4697 20.9867 10.013 18.5301 10.013 15.4997C10.013 12.4693 12.4697 10.0126 15.5001 10.0126C18.5305 10.0126 20.9871 12.4693 20.9871 15.4997Z" fill="white"/>
</svg>
