<svg width="30" height="30" viewBox="0 0 30 30" fill="none" xmlns="http://www.w3.org/2000/svg">
<g id="Headset" clip-path="url(#clip0_135_84)">
<path id="Vector" d="M26.25 23.4375V24.375C26.25 25.3696 25.8549 26.3234 25.1516 27.0266C24.4484 27.7299 23.4946 28.125 22.5 28.125H15.9375" stroke="#797979" stroke-width="2" stroke-linecap="round" stroke-linejoin="round"/>
<path id="Vector_2" d="M26.25 15H22.5C22.0027 15 21.5258 15.1975 21.1742 15.5492C20.8225 15.9008 20.625 16.3777 20.625 16.875V21.5625C20.625 22.0598 20.8225 22.5367 21.1742 22.8883C21.5258 23.24 22.0027 23.4375 22.5 23.4375H26.25V15ZM26.25 15C26.25 13.5226 25.959 12.0597 25.3936 10.6948C24.8283 9.3299 23.9996 8.08971 22.955 7.04505C21.9103 6.00039 20.6701 5.17172 19.3052 4.60636C17.9403 4.04099 16.4774 3.75 15 3.75C13.5226 3.75 12.0597 4.04099 10.6948 4.60636C9.3299 5.17172 8.08971 6.00039 7.04505 7.04505C6.00039 8.08971 5.17172 9.3299 4.60636 10.6948C4.04099 12.0597 3.75 13.5226 3.75 15M3.75 15V21.5625C3.75 22.0598 3.94754 22.5367 4.29917 22.8883C4.65081 23.24 5.12772 23.4375 5.625 23.4375H7.5C7.99728 23.4375 8.47419 23.24 8.82582 22.8883C9.17746 22.5367 9.375 22.0598 9.375 21.5625V16.875C9.375 16.3777 9.17746 15.9008 8.82582 15.5492C8.47419 15.1975 7.99728 15 7.5 15H3.75Z" stroke="#797979" stroke-width="2" stroke-linecap="round" stroke-linejoin="round"/>
</g>
<defs>
<clipPath id="clip0_135_84">
<rect width="30" height="30" fill="white"/>
</clipPath>
</defs>
</svg>
